# xmcd
#
# Track frame offsets:
#       150
#       10853
#       22298
#       36380
#       54375
#       65009
#       76392
#       86979
#       99106
#       111954
#       124651
#       137472
#       147340
#       156601
#       172300
#       183449
#       195182
#       211874
#       223061
#
# Disc length: 3105 seconds
#
# Revision: 1
# Processed by: cddbd v1.5.1PL0 Copyright (c) Steve Scherf et al.
# Submitted via: MusiCat 1.1
#
DISCID=180c1f13
DTITLE=Eric Clapton - The Great Legends of Rock
DYEAR=1900
DGENRE=
TTITLE0=West Coast Idea
TTITLE1=For Your Love (Yardbirds)
TTITLE2=Draggin' My Tail (with Jimmy Page)
TTITLE3=Telephone Blues (John Mayal Bluesbreakers)
TTITLE4=I Wish You Would (Yardbirds)
TTITLE5=Snake Drive
TTITLE6=A Certain Girl (Yardbirds)
TTITLE7=Baby, What's Wrong (Yardbirds)
TTITLE8=Freight Loader (/Jimmy Page)
TTITLE9=Good Morning Little Schoolgirl (Yardbirds)
TTITLE10=On Top Of The World (John Mayall's Bluesbreakers)
TTITLE11=Tribute To Elmore
TTITLE12=I Ain't Got You (Yardbirds)
TTITLE13=Train Keep A Rollin' (Yardbirds)
TTITLE14=Miles Road (/Jimmy Page)
TTITLE15=Got Love If You Want (Yardbirds)
TTITLE16=I Ain't Done Wrong (Yardbirds)
TTITLE17=Boom Boom (Yardbirds)
TTITLE18=I'm Your Witchdoctor (John Mayall's Bluesbreakers)
EXTD=\n\n
EXTT0=
EXTT1=
EXTT2=
EXTT3=
EXTT4=
EXTT5=
EXTT6=
EXTT7=
EXTT8=
EXTT9=
EXTT10=
EXTT11=
EXTT12=
EXTT13=
EXTT14=
EXTT15=
EXTT16=
EXTT17=
EXTT18=
PLAYORDER=
